<svg xmlns="http://www.w3.org/2000/svg" viewBox="0 0 41 41"><defs><style>.cls-1{fill:none;stroke:#f48120;stroke-miterlimit:10;}.cls-2{fill:#f48120;}</style></defs><title>ok</title><g id="Layer_2" data-name="Layer 2"><g id="Layer_1-2" data-name="Layer 1"><circle class="cls-1" cx="20.5" cy="20.5" r="20"/><path class="cls-2" d="M20.5,20.83a5.12,5.12,0,1,0-5.12-5.12A5.12,5.12,0,0,0,20.5,20.83Zm0-7.24a2.12,2.12,0,1,1-2.12,2.12A2.12,2.12,0,0,1,20.5,13.59Z"/><path class="cls-2" d="M22.57,25a9.59,9.59,0,0,0,3-1.23,1.5,1.5,0,0,0-1.6-2.54,6.5,6.5,0,0,1-6.89,0,1.5,1.5,0,0,0-1.6,2.54,9.6,9.6,0,0,0,3,1.23l-2.86,2.86A1.5,1.5,0,0,0,17.69,30l2.81-2.81L23.31,30a1.5,1.5,0,1,0,2.12-2.12Z"/></g></g></svg>