<svg xmlns="http://www.w3.org/2000/svg" viewBox="0 0 40 40"><defs><style>.cls-1{fill:#f48120;}.cls-2{fill:#fff;}</style></defs><title>ok_hover</title><g id="Layer_2" data-name="Layer 2"><g id="Layer_1-2" data-name="Layer 1"><circle class="cls-1" cx="20" cy="20" r="20"/><path class="cls-2" d="M20,20.33a5.12,5.12,0,1,0-5.12-5.12A5.12,5.12,0,0,0,20,20.33Zm0-7.24a2.12,2.12,0,1,1-2.12,2.12A2.12,2.12,0,0,1,20,13.09Z"/><path class="cls-2" d="M22.07,24.5a9.59,9.59,0,0,0,3-1.23,1.5,1.5,0,0,0-1.6-2.54,6.5,6.5,0,0,1-6.89,0A1.5,1.5,0,0,0,15,23.27a9.6,9.6,0,0,0,3,1.23l-2.86,2.86a1.5,1.5,0,0,0,2.12,2.12L20,26.67l2.81,2.81a1.5,1.5,0,1,0,2.12-2.12Z"/></g></g></svg>