<svg xmlns="http://www.w3.org/2000/svg" viewBox="0 0 41 41"><defs><style>.cls-1{fill:none;stroke:#5da6db;stroke-miterlimit:10;}.cls-2{fill:#5da6db;}</style></defs><title>twitter</title><g id="Layer_2" data-name="Layer 2"><g id="Layer_1-2" data-name="Layer 1"><path class="cls-1" d="M20.5,40.5a20,20,0,1,0-20-20,20,20,0,0,0,20,20"/><path class="cls-2" d="M29,16a7,7,0,0,1-2,.55,3.5,3.5,0,0,0,1.54-1.93,7,7,0,0,1-2.22.85,3.5,3.5,0,0,0-6,3.19A9.92,9.92,0,0,1,13.18,15a3.5,3.5,0,0,0,1.08,4.67,3.5,3.5,0,0,1-1.58-.44v0a3.5,3.5,0,0,0,2.8,3.43,3.41,3.41,0,0,1-.92.12,3.46,3.46,0,0,1-.66-.06,3.5,3.5,0,0,0,3.26,2.43A7.07,7.07,0,0,1,12,26.68a9.94,9.94,0,0,0,15.3-8.37c0-.15,0-.3,0-.45A7.09,7.09,0,0,0,29,16"/></g></g></svg>