<svg xmlns="http://www.w3.org/2000/svg" viewBox="0 0 40 40"><defs><style>.cls-1{fill:#5da6db;}.cls-2{fill:#fff;}</style></defs><title>twitter_hover</title><g id="Layer_2" data-name="Layer 2"><g id="Layer_1-2" data-name="Layer 1"><path class="cls-1" d="M20,40A20,20,0,1,0,0,20,20,20,0,0,0,20,40"/><path class="cls-2" d="M28.53,15.54a7,7,0,0,1-2,.55,3.5,3.5,0,0,0,1.54-1.93,7,7,0,0,1-2.22.85,3.5,3.5,0,0,0-6,3.19,9.92,9.92,0,0,1-7.2-3.65,3.5,3.5,0,0,0,1.08,4.67,3.5,3.5,0,0,1-1.58-.44v0A3.5,3.5,0,0,0,15,22.25a3.41,3.41,0,0,1-.92.12,3.46,3.46,0,0,1-.66-.06,3.5,3.5,0,0,0,3.26,2.43,7.07,7.07,0,0,1-5.17,1.45,9.94,9.94,0,0,0,15.3-8.37c0-.15,0-.3,0-.45a7.09,7.09,0,0,0,1.74-1.81"/></g></g></svg>