<svg xmlns="http://www.w3.org/2000/svg" viewBox="0 0 41 41"><defs><style>.cls-1{fill:none;stroke:#4d75a3;stroke-miterlimit:10;}.cls-2{fill:#4d75a3;fill-rule:evenodd;}</style></defs><title>vk</title><g id="Layer_2" data-name="Layer 2"><g id="Layer_1-2" data-name="Layer 1"><rect class="cls-1" x="0.5" y="0.5" width="40" height="40" rx="20" ry="20"/><path class="cls-2" d="M28.67,23a9.35,9.35,0,0,1,2.08,2.41c.69,1.15-.77,1.24-.77,1.24l-2.8,0a2,2,0,0,1-1.39-.42c-1-.72-2-2.59-2.8-2.34s-.76,1.93-.76,1.93a.92.92,0,0,1-.17.55,1.06,1.06,0,0,1-.57.25H20.24A7.19,7.19,0,0,1,15,24.28C12.39,21.52,10,16,10,16s-.14-.36,0-.53.61-.21.61-.21l3,0a1.3,1.3,0,0,1,.48.2.94.94,0,0,1,.26.35,20.1,20.1,0,0,0,1.12,2.33c1.25,2.16,1.83,2.63,2.26,2.4.62-.34.43-3.05.43-3.05a3,3,0,0,0-.31-1.43A1.41,1.41,0,0,0,17,15.6c-.17,0,.11-.41.47-.59a6.8,6.8,0,0,1,2.61-.27,5.38,5.38,0,0,1,1.47.15c1,.25.68,1.21.68,3.52,0,.74-.13,1.78.4,2.12.23.15.79,0,2.19-2.36A18.28,18.28,0,0,0,26,15.72a.88.88,0,0,1,.28-.34.71.71,0,0,1,.41-.07l3.15,0s.95-.11,1.1.31-.35,1.5-1.64,3.21C27.15,21.63,26.92,21.37,28.67,23Z"/></g></g></svg>