<svg xmlns="http://www.w3.org/2000/svg" viewBox="0 0 40 40"><defs><style>.cls-1{fill:#4d75a3;}.cls-2{fill:#fff;fill-rule:evenodd;}</style></defs><title>vk_hover</title><g id="Layer_2" data-name="Layer 2"><g id="Layer_1-2" data-name="Layer 1"><rect class="cls-1" width="40" height="40" rx="20" ry="20"/><path class="cls-2" d="M28.17,22.5a9.35,9.35,0,0,1,2.08,2.41c.69,1.15-.77,1.24-.77,1.24l-2.8,0a2,2,0,0,1-1.39-.42c-1-.72-2-2.59-2.8-2.34s-.76,1.93-.76,1.93a.92.92,0,0,1-.17.55,1.06,1.06,0,0,1-.57.25H19.74a7.19,7.19,0,0,1-5.2-2.37c-2.65-2.76-5-8.25-5-8.25s-.14-.36,0-.53.61-.21.61-.21l3,0a1.3,1.3,0,0,1,.48.2.94.94,0,0,1,.26.35A20.1,20.1,0,0,0,15,17.65c1.25,2.16,1.83,2.63,2.26,2.4.62-.34.43-3.05.43-3.05a3,3,0,0,0-.31-1.43,1.41,1.41,0,0,0-.93-.47c-.17,0,.11-.41.47-.59a6.8,6.8,0,0,1,2.61-.27,5.38,5.38,0,0,1,1.47.15c1,.25.68,1.21.68,3.52,0,.74-.13,1.78.4,2.12.23.15.79,0,2.19-2.36a18.28,18.28,0,0,0,1.16-2.46.88.88,0,0,1,.28-.34.71.71,0,0,1,.41-.07l3.15,0s.95-.11,1.1.31-.35,1.5-1.64,3.21C26.65,21.13,26.42,20.87,28.17,22.5Z"/></g></g></svg>